<svg xmlns="http://www.w3.org/2000/svg" xmlns:xlink="http://www.w3.org/1999/xlink" version="1.1" x="0px" y="0px" viewBox="0 0 100 125" enable-background="new 0 0 100 100" xml:space="preserve"><path fill="#000000" d="M9.56,92.028h81.218c0.276,0,0.5-0.224,0.5-0.5V9.823c0-0.276-0.224-0.5-0.5-0.5H9.56  c-0.276,0-0.5,0.224-0.5,0.5v81.705C9.06,91.805,9.283,92.028,9.56,92.028z M23.904,79.134V22.121h52.431v57.013H23.904z"/><path fill="#000000" d="M72.642,24.632H27.695c-0.276,0-0.5,0.224-0.5,0.5v50.991c0,0.276,0.224,0.5,0.5,0.5h44.946  c0.276,0,0.5-0.224,0.5-0.5V25.132C73.142,24.855,72.918,24.632,72.642,24.632z M72.142,25.632v49.991H28.195V25.632H72.142z"/><path fill="#000000" d="M96.335,4.145H4.003c-0.552,0-1,0.447-1,1v91.064c0,0.553,0.448,1,1,1h92.332c0.552,0,1-0.447,1-1V5.145  C97.335,4.592,96.887,4.145,96.335,4.145z M95.835,5.645v90.064H4.503V5.645H95.835z"/></svg>