<svg xmlns="http://www.w3.org/2000/svg" xmlns:xlink="http://www.w3.org/1999/xlink" version="1.1" x="0px" y="0px" viewBox="0 0 20 25" style="enable-background:new 0 0 20 20;" xml:space="preserve"><g><path d="M17.5,8H11c2.6,3.2,2.4,7.2,0.3,10l0,0h2.2c0.1,0,0.3,0.1,0.4,0.1l1,1c0.3,0.3,0.1,0.9-0.4,0.9h-9c-0.4,0-0.7-0.5-0.4-0.9   l1-1C6.2,18.1,6.3,18,6.5,18h2.2l0,0C6.6,15.2,6.4,11.2,9,8H2.5C2.1,8,1.9,7.6,2,7.3l3.5-7C5.6,0.1,5.8,0,6,0h7.8   c0.2,0,0.4,0.1,0.5,0.3l3.7,7C18.1,7.6,17.9,8,17.5,8z"/></g></svg>