<svg xmlns="http://www.w3.org/2000/svg" viewBox="0 0 100 125" x="0px" y="0px"><defs><style>.cls-1{fill:none;}</style></defs><title>Asset 708</title><g data-name="Layer 2"><g data-name="Layer 1"><rect class="cls-1" width="100" height="100"/><path d="M49,31.83c12.34,0,19.07-2.84,19.07-4.31s-5.63-3.82-16-4.24a4.94,4.94,0,1,0-6.14,0c-10.37.42-16,2.91-16,4.24S36.65,31.83,49,31.83Z"/><path d="M84.55,30.79a12.62,12.62,0,0,0-9.49,4.6,30.1,30.1,0,0,0-4.41-4C65.8,33.91,57.36,35.23,49,35.23s-16.82-1.32-21.67-3.87A30,30,0,0,0,15.19,55.48h0v.07c-.73-.73-1.35-1.41-1.94-2.06a8.72,8.72,0,0,1-1.93-3,7.1,7.1,0,0,1-.37-2c0-.35,0-.71,0-1.09s0-.69.07-1.24a23,23,0,0,0-.24-6.06A12.55,12.55,0,0,0,9.85,37,8.47,8.47,0,0,0,8,34.28,6.4,6.4,0,0,0,5.06,32.7a6.46,6.46,0,0,0-3.06,0l.1.82a5.49,5.49,0,0,1,2.25.89,4.15,4.15,0,0,1,1.4,1.62,7.68,7.68,0,0,1,.48,4.3,18,18,0,0,1-.44,2.35c-.2.79-.41,1.58-.67,2.37-.12.35-.27.92-.39,1.43s-.22,1.06-.29,1.61a20.05,20.05,0,0,0-.16,3.41,13.66,13.66,0,0,0,2.1,7A12.71,12.71,0,0,0,11.7,63a16.19,16.19,0,0,0,4.82,1.38A30.06,30.06,0,0,0,45.23,85.53h7.51A30,30,0,0,0,78,71.76c3.69-.93,8.08-4.11,12.16-8.91C95.07,57.08,98,50.63,98,45.62,98,37.16,92.22,30.79,84.55,30.79Zm-4,36a29.94,29.94,0,0,0,2.2-11.27h0A29.93,29.93,0,0,0,77.4,38.32c1.94-2.56,4.45-4.13,7.15-4.13,6.37,0,9.7,5.75,9.7,11.43C94.25,53.06,86.65,62.73,80.59,66.75Z"/></g></g></svg>